<?xml version="1.0" encoding="utf-8"?>
<!-- Generator: Adobe Illustrator 23.0.0, SVG Export Plug-In . SVG Version: 6.00 Build 0)  -->
<svg version="1.1" id="Calque_1" xmlns="http://www.w3.org/2000/svg" xmlns:xlink="http://www.w3.org/1999/xlink" x="0px" y="0px"
	 viewBox="0 0 345.07 204.52" style="enable-background:new 0 0 345.07 204.52;" xml:space="preserve">
<style type="text/css">
	.st0{fill:#040605;}
	.st1{fill:#FCEA10;}
	.st2{fill:none;stroke:#FFFFFF;stroke-width:12;stroke-miterlimit:10;}
	.st3{fill:none;}
	.st4{fill:#FFFFFF;}
	.st5{fill:none;stroke:#000000;stroke-width:12;stroke-miterlimit:10;}
	.st6{fill:#3AAA35;}
	.st7{fill:#E71D73;}
	.st8{fill:#951B81;}
	.st9{fill:#3CBFF0;}
	.st10{fill:#FBEA1C;}
	.st11{fill:#F39200;}
	.st12{fill:#36A9E1;}
	.st13{fill:#E6332A;}
</style>
<g>
	<path class="st9" d="M225.2,149.4c-2.32,4.36-6.81,7.31-11.96,7.31c-7.56,0-13.7-6.35-13.7-14.19c0-7.83,6.14-14.18,13.7-14.18
		c4.93,0,9.26,2.7,11.66,6.76l9.23-7.49c-4.65-6.51-12.28-10.76-20.89-10.76c-14.18,0-25.68,11.49-25.68,25.67
		c0,10.31,6.08,19.2,14.84,23.28c1.26,0.08,2.53,0.12,3.82,0.12c7.95,0,15.97-1.33,23.6-3.8c1.87-1.58,3.51-3.43,4.86-5.48
		L225.2,149.4z"/>
	<path d="M274.2,146.26c-15.55,19.53-41.6,31.66-67.98,31.66c-22.63,0-42-9.63-62.82-31.23l8.64-8.33
		c17.13,17.78,32.82,26.37,50.36,27.44c1.26,0.08,2.53,0.12,3.82,0.12c7.95,0,15.97-1.33,23.6-3.8
		c13.92-4.47,26.51-12.68,34.99-23.33L274.2,146.26z"/>
	<path d="M124.34,62.81c0-14.5-11.19-26.25-24.98-26.25c-13.81,0-25,11.75-25,26.25s11.19,26.25,25,26.25h24.98V77.69h-23.02
		c-0.51,0.01-1.05,0.01-1.61,0c-10.56-0.14-11.5-10.88-11.5-10.88l36.13,0.02C124.34,62.81,124.34,64.17,124.34,62.81z M88.19,56.81
		c1.05-5.1,5.55-8.94,10.96-8.94c5.42,0,9.92,3.84,10.96,8.94H88.19z"/>
	<path d="M171.82,36.14v3.64c-4.02-2.36-8.72-3.72-13.75-3.72c-14.82,0-26.83,11.79-26.83,26.33s12.01,26.33,26.83,26.33
		c5.03,0,9.73-1.36,13.75-3.72v3.64h13.08v-52.5H171.82z M171.82,65.42c-1.38,6.37-7,11.15-13.75,11.15
		c-7.78,0-14.08-6.35-14.08-14.17s6.3-14.17,14.08-14.17c6.75,0,12.37,4.77,13.75,11.14c0.16,0.85,0.25,2.12,0.25,3.03
		C172.07,63.31,171.98,64.56,171.82,65.42z"/>
	<path d="M282.38,89.08c-0.03,0.29-0.07,0.57-0.12,0.84v-0.84H282.38z"/>
	<path d="M283.55,108c-0.18,0.11-0.37,0.22-0.55,0.32c-0.13,0.08-0.27,0.15-0.41,0.22l-0.33,0.18v-0.4c0.25-0.05,0.5-0.11,0.74-0.17
		C283.19,108.12,283.37,108.06,283.55,108z"/>
	<path d="M295.63,89.08c-0.03,0.92-0.08,1.94-0.13,2.88c-0.07,1.15-0.14,2.19-0.21,2.75c0,0.07-0.02,0.14-0.03,0.21l0.15-4.51V90.4
		c-0.03-0.24-0.06-0.49-0.1-0.72c-0.03-0.21-0.07-0.4-0.11-0.6H295.63z"/>
	<g>
		<path d="M69.55,138.94v10.89H53.09c-0.35,0.04-0.71,0.03-1.07,0.02h-0.04c-6.42-0.99-11.34-6.53-11.34-13.23v-28.79h-5.9V97.08
			h5.9V85.5H53.3v11.59h15.6v10.75H53.3v20.27h0.01v5.19c0,3.45,2.48,5.57,5.89,5.64c0.06,0.01,0.13,0.01,0.19,0.01H69.55z"/>
	</g>
	<path d="M220.37,77.22c-0.22,0-2.07,0.04-2.28,0H220.37z"/>
	<path d="M220.99,89.21v0.01h-0.62C220.58,89.22,220.78,89.22,220.99,89.21z"/>
	<path d="M211.83,48.37c-0.06,0-0.12,0-0.18,0.01h-0.18v-0.01H211.83z"/>
	<path d="M211.83,48.37c-0.06,0-0.12,0-0.18,0.01c-0.06-0.01-0.12,0-0.18,0.01v-0.02H211.83z"/>
	<path d="M104.11,97c-0.33,0-0.66,0.01-0.98,0.02V97H104.11z"/>
	<path d="M194.3,97.11L104.22,97h-0.11c-0.33,0-0.66,0.01-0.98,0.02c-14.12,0.54-25.41,12.16-25.41,26.41
		c0,14.61,11.84,26.44,26.44,26.44c14.6,0,26.44-11.83,26.44-26.44c0-5.6-1.74-10.79-4.72-15.06l41.08,0.04
		C176.09,103.31,185.21,99.55,194.3,97.11z M104.16,137.53c-7.79,0-14.1-6.32-14.1-14.11c0-7.79,6.31-14.1,14.1-14.1
		c7.79,0,14.11,6.31,14.11,14.1C118.27,131.21,111.95,137.53,104.16,137.53z"/>
	<path d="M274.11,97.19c-2.78,0.25-5.91-0.07-8.82,0.01c-0.15,0.01-0.31,0.01-0.46,0.01c-0.15,0-0.3,0-0.45-0.01
		c-0.21,0-0.43-0.01-0.64-0.02L274.11,97.19z"/>
	<path d="M283,108.15v0.39h-2.18c0.49-0.05,0.97-0.13,1.44-0.22C282.51,108.27,282.76,108.21,283,108.15z"/>
	<g>
		<g>
			<path d="M263.36,97.15c0,0.01,0,0.02,0.01,0.03h0.37C263.61,97.18,263.49,97.17,263.36,97.15z"/>
		</g>
	</g>
	<g>
		<g>
			<path d="M264.38,97.2c0.15,0.01,0.3,0.01,0.45,0.01c0.15,0,0.31,0,0.46-0.01H264.38z"/>
		</g>
	</g>
	<g>
		<g>
			<path d="M277.24,108.53c0.02,0.01,0.03,0.01,0.05,0.01h0.01c0.58,0.06,1.15,0.09,1.75,0.09c0.59,0,1.18-0.03,1.75-0.09
				L277.24,108.53z"/>
		</g>
	</g>
	<g>
		<g>
			<path d="M295.41,90.42l-0.15,4.51c0.01-0.07,0.03-0.14,0.03-0.21c0.04-0.19,0.07-0.38,0.09-0.57c0.03-0.19,0.05-0.38,0.06-0.56
				c0.02-0.19,0.03-0.37,0.04-0.56c0.01-0.28,0.02-0.56,0.02-0.84v-0.22C295.49,91.43,295.46,90.93,295.41,90.42z"/>
		</g>
	</g>
	<g>
		<g>
			<path d="M282.25,36.43v29.05c0,5.71-5.42,10.1-11.26,10.1s-11.27-4.39-11.27-10.1v-29.1h-13.46v27.99c0,9.59,5.47,17.91,13.46,22
				c3.38,1.74,7.21,2.72,11.27,2.72s7.88-0.98,11.26-2.72v2.72h0.13c-0.03,0.29-0.07,0.57-0.12,0.84c-0.91,5.41-4.17,6.92-8.15,7.27
				c-2.78,0.25-5.91-0.07-8.82,0.01c-0.15,0.01-0.31,0.01-0.46,0.01c-0.15,0-0.3,0-0.45-0.01c-0.21,0-0.43-0.01-0.64-0.02h-0.37
				l-18.38-0.02c9.64,2.5,19.37,6.34,28.82,11.37h3.43l3.56,0.01c0.01,0,0.01,0,0.02,0c0.49-0.05,0.97-0.13,1.44-0.22
				c0.25-0.05,0.5-0.11,0.74-0.17c0.19-0.04,0.37-0.09,0.55-0.15h0.01l0.01-0.01c0.03,0,0.05,0,0.08-0.02
				c0.18-0.05,0.37-0.11,0.55-0.17c1.12-0.36,2.18-0.85,3.18-1.43c0.13-0.09,0.26-0.17,0.39-0.25c0.78-0.48,1.51-1.03,2.18-1.62
				c0.13-0.12,0.26-0.24,0.38-0.36c1.76-1.65,3.15-3.68,4.04-5.97c0.08-0.18,0.15-0.37,0.21-0.56c0.23-0.65,0.42-1.32,0.56-2
				c0.03-0.15,0.06-0.3,0.08-0.44c0.02-0.08,0.03-0.17,0.04-0.25l0.15-4.51V90.4c-0.03-0.24-0.06-0.49-0.1-0.72
				c-0.03-0.21-0.07-0.4-0.11-0.6h0.43c0.05-1.14,0.08-2.13,0.08-2.58V36.43H282.25z"/>
		</g>
	</g>
	<g>
		<g>
			<path d="M295.63,89.08h0.08V86.5C295.71,86.95,295.68,87.94,295.63,89.08z"/>
		</g>
	</g>
	<path d="M265.29,97.2c-0.15,0.01-0.31,0.01-0.46,0.01c-0.15,0-0.3,0-0.45-0.01H265.29z"/>
	<path d="M286.44,134l-8.36,8.6c-17.39-16.91-39.83-27.41-58.57-27.41c-17.68,0-36.14,9.22-54.86,27.41l-8.36-8.6
		c5.54-5.39,11.1-10.08,16.66-14.05c6.86-4.92,13.74-8.76,20.6-11.51c8.68-3.5,17.35-5.25,25.96-5.25c8.64,0,17.89,1.86,27.13,5.31
		c9.66,3.58,19.31,8.89,28.23,15.59c0.02,0.02,0.03,0.03,0.05,0.04C278.93,127.15,282.79,130.45,286.44,134z"/>
	<path d="M211.65,48.38c0.06-0.01,0.12-0.01,0.18-0.01h-0.36v0.01h-1.94c-0.12,0-0.24,0-0.36,0.02c-2.53,0.18-4.54,2.3-4.54,4.88
		c0,1.05,0.33,2.01,0.9,2.81c0.24,0.34,0.54,0.67,0.85,0.94c0.57,0.49,1.27,0.83,2,1.01c1.71,0.41,3.28-0.12,4.77-0.91
		c0.81-0.43,1.63-0.78,2.51-1.04c1.49-0.44,3.07-0.67,4.71-0.67c3.35,0,6.48,0.98,9.1,2.67c1.74,1.11,3.26,2.54,4.48,4.19
		c2.09,2.81,3.32,6.28,3.32,10.04c0,9.11-7.25,16.56-16.28,16.89c-0.21,0.01-0.41,0.01-0.62,0.01h-27.74v-12h25.46
		c0.21,0.04,2.06,0,2.28,0c2.7,0,4.9-2.2,4.9-4.9c0-1.05-0.33-2.02-0.91-2.82c-0.33-0.46-0.87-0.89-1.34-1.21
		c-0.83-0.58-1.86-0.85-2.87-0.78c-2.12,0.13-3.89,1.36-5.87,1.97c-1.54,0.47-3.14,0.69-4.75,0.69c-3.37,0-6.51-0.99-9.15-2.7
		c-1.71-1.1-3.22-2.51-4.43-4.15c-2.09-2.81-3.32-6.28-3.32-10.04c0-9.32,7.58-16.9,16.9-16.9c0.65,0,1.29,0.04,1.93,0.11v-0.11
		h25.81v12H211.65z"/>
	<path d="M211.83,48.37c-0.06,0-0.12,0-0.18,0.01h-0.18v-0.01H211.83z"/>
</g>
</svg>
